<svg width="40" height="40" viewBox="0 0 40 40" fill="none" xmlns="http://www.w3.org/2000/svg">
<path fill-rule="evenodd" clip-rule="evenodd" d="M26.8789 7.70692C27.2694 7.31647 27.9025 7.31642 28.293 7.70692C28.6834 8.09742 28.6834 8.73048 28.293 9.12098L25.4053 12.0077C26.9998 13.4037 28 15.4086 28 17.6366V17.9999H32C32.5523 17.9999 33 18.4476 33 18.9999C33 19.5522 32.5523 19.9999 32 19.9999H28V21.9999H32C32.5523 21.9999 33 22.4476 33 22.9999C33 23.5522 32.5523 23.9999 32 23.9999H28V25.9999H32C32.5523 25.9999 33 26.4476 33 26.9999C33 27.5522 32.5523 27.9999 32 27.9999H27.8145C27.0296 31.4308 23.8297 33.9999 20 33.9999C16.1703 33.9999 12.9704 31.4308 12.1855 27.9999H8C7.44772 27.9999 7 27.5522 7 26.9999C7 26.4476 7.44772 25.9999 8 25.9999H12V23.9999H8C7.44772 23.9999 7 23.5522 7 22.9999C7 22.4476 7.44772 21.9999 8 21.9999H12V19.9999H8C7.44772 19.9999 7 19.5522 7 18.9999C7 18.4476 7.44772 17.9999 8 17.9999H12V17.6366C12 15.4091 12.9989 13.4036 14.5928 12.0077L11.707 9.12098C11.3166 8.73045 11.3166 8.0974 11.707 7.70692C12.0975 7.31645 12.7306 7.31654 13.1211 7.70692L16.2871 10.872C17.3969 10.3158 18.6596 9.99989 20 9.99989C21.3401 9.99989 22.6024 10.316 23.7119 10.872L26.8789 7.70692ZM20 12.1815C16.8441 12.1815 14.2861 14.6241 14.2861 17.6366V26.3632C14.2861 29.3756 16.8441 31.8182 20 31.8182C23.1559 31.8182 25.7139 29.3756 25.7139 26.3632V17.6366C25.7139 14.6241 23.1559 12.1815 20 12.1815Z" fill="#333333"/>
</svg>
